<svg width="25" height="26" viewBox="0 0 25 26" fill="none" xmlns="http://www.w3.org/2000/svg">
  <path d="M21.1238 10.7878C21.1862 10.5563 21.1385 10.3085 20.9946 10.1176C20.8508 9.92673 20.6273 9.81452 20.3901 9.81409H7.32117C7.22997 9.81516 7.15092 9.75039 7.13298 9.6599L6.69717 7.56285C6.45232 6.40671 5.44507 5.579 4.2766 5.57373C3.75061 5.57373 3.32422 6.0052 3.32422 6.53745C3.32422 7.0697 3.75061 7.50117 4.2766 7.50117C4.5474 7.50244 4.78034 7.69538 4.83508 7.96375L7.24727 19.5816C7.37235 20.1772 7.70736 20.7063 8.18974 21.0703C8.23602 21.1052 8.26409 21.1595 8.26602 21.2179C8.26795 21.2762 8.24352 21.3323 8.19965 21.3702C7.60078 21.8946 7.49866 22.7957 7.96467 23.4436C8.43068 24.0916 9.30949 24.2703 9.98669 23.8548C10.6639 23.4394 10.9137 22.5683 10.5616 21.8506C10.5318 21.7909 10.535 21.7199 10.5699 21.6632C10.605 21.6067 10.6663 21.5723 10.7322 21.5722H15.2808C15.3467 21.5722 15.4079 21.6067 15.4426 21.6634C15.4774 21.72 15.4807 21.7908 15.4515 21.8506C15.2175 22.3283 15.2441 22.8944 15.5216 23.3475C15.7992 23.8007 16.2884 24.0766 16.8153 24.0771C17.3441 24.0768 17.835 23.7991 18.1121 23.3434C18.3893 22.8877 18.4132 22.3192 18.1753 21.8413C18.1464 21.7837 18.1492 21.7151 18.1826 21.66C18.216 21.605 18.2752 21.5714 18.3391 21.5715C18.8651 21.5715 19.2915 21.14 19.2915 20.6077C19.2915 20.0755 18.8651 19.644 18.3391 19.644H9.67089C9.40106 19.6432 9.16826 19.4523 9.11165 19.1853L8.97527 18.5261C8.96383 18.4694 8.97818 18.4105 9.01436 18.3656C9.05055 18.3208 9.10473 18.2948 9.16193 18.2948H17.3555C18.3862 18.2947 19.2893 17.5965 19.5604 16.5902L21.1238 10.7878Z" fill="black" />
</svg>