
<svg width="12" height="14" viewBox="0 0 12 14" fill="none" xmlns="http://www.w3.org/2000/svg">
  <path fill-rule="evenodd" clip-rule="evenodd" d="M0.902874 0H11.0971C11.5966 0.00288724 11.9999 0.393794 11.9999 0.875V4.52842C12.014 8.47711 9.75966 12.1094 6.14229 13.9662C6.09846 13.9885 6.04959 14.0001 6 14C5.95054 14 5.90186 13.9882 5.85831 13.9656C2.24043 12.1095 -0.0143776 8.47721 6.90075e-05 4.52842V0.875C6.00165e-05 0.393794 0.403389 0.00288724 0.902874 0ZM4.27996 10.1535L8.64261 5.52417H8.6414C8.73648 5.42648 8.76228 5.28372 8.70704 5.16083C8.65181 5.03793 8.5261 4.95837 8.38709 4.95833H7.02047C6.96655 4.95856 6.91661 4.93103 6.8895 4.88613C6.86238 4.84123 6.86222 4.7858 6.88907 4.74075L8.34228 2.25925C8.4075 2.15557 8.40957 2.02605 8.34769 1.92048C8.28581 1.81492 8.16961 1.74974 8.04377 1.75H6.29628C6.17086 1.74999 6.05515 1.81509 5.99353 1.92033L3.62299 5.91558C3.56216 6.01946 3.56305 6.14662 3.62533 6.2497C3.68761 6.35277 3.80194 6.41632 3.92574 6.41667H5.21122C5.26114 6.41692 5.30775 6.44077 5.33592 6.48048C5.36408 6.52019 5.37021 6.57069 5.3523 6.61558L3.99053 9.9785C3.96142 10.0532 3.99092 10.1374 4.0611 10.1798C4.13128 10.2222 4.22276 10.2112 4.27996 10.1535Z" fill="white" />
</svg>