<svg class="tf-status-img" width="13" height="13" viewBox="0 0 14 14" fill="none" xmlns="http://www.w3.org/2000/svg">
  <path d="M8.99521 3.717C8.89131 3.82953 8.71807 3.84252 8.59855 3.74675L6.93313 2.41383C6.35298 1.94974 5.51668 1.99597 4.99121 2.52117L0.984879 6.52692C0.643061 6.86873 0.643061 7.42293 0.984879 7.76475C1.3267 8.10657 1.88089 8.10657 2.22271 7.76475L5.85921 4.12767C5.96444 4.0227 6.13178 4.01365 6.24771 4.10667L7.93296 5.453C8.52981 5.92106 9.38473 5.85841 9.90696 5.30833L11.9218 3.13017C11.9488 3.10099 11.9865 3.08412 12.0262 3.0835C12.0658 3.08253 12.104 3.09794 12.1318 3.12608L12.9613 3.955C13.0431 4.03729 13.1544 4.08349 13.2705 4.08333C13.5121 4.08333 13.708 3.88746 13.708 3.64583V0.4375C13.708 0.195875 13.5121 0 13.2705 0H10.0621C9.8853 0.000155537 9.72595 0.106747 9.6583 0.270128C9.59065 0.433509 9.628 0.621549 9.75296 0.746667L10.6863 1.68C10.7416 1.73551 10.7434 1.82472 10.6904 1.88242L8.99521 3.717Z" fill="#3D62E6" />
  <path d="M12.2493 12.25H8.16602C7.68277 12.25 7.29102 12.6418 7.29102 13.125C7.29102 13.6082 7.68277 14 8.16602 14H12.2493C12.7326 14 13.1243 13.6082 13.1243 13.125C13.1243 12.6418 12.7326 12.25 12.2493 12.25Z" fill="#3D62E6" />
  <path d="M1.75 14H5.83333C6.31658 14 6.70833 13.6082 6.70833 13.125C6.70833 12.6418 6.31658 12.25 5.83333 12.25H1.75C1.26675 12.25 0.875 12.6418 0.875 13.125C0.875 13.6082 1.26675 14 1.75 14Z" fill="#3D62E6" />
  <path d="M5.24935 11.375C5.7326 11.375 6.12435 10.9832 6.12435 10.5C6.12435 10.0168 5.7326 9.625 5.24935 9.625H1.16602C0.682766 9.625 0.291016 10.0168 0.291016 10.5C0.291016 10.9832 0.682766 11.375 1.16602 11.375H5.24935Z" fill="#3D62E6" />
  <path d="M13.7083 10.5C13.7083 10.0168 13.3166 9.625 12.8333 9.625H8.75C8.26675 9.625 7.875 10.0168 7.875 10.5C7.875 10.9832 8.26675 11.375 8.75 11.375H12.8333C13.3166 11.375 13.7083 10.9832 13.7083 10.5Z" fill="#3D62E6" />
  <path d="M8.16602 8.75H12.2493C12.7326 8.75 13.1243 8.35825 13.1243 7.875C13.1243 7.39175 12.7326 7 12.2493 7H8.16602C7.68277 7 7.29102 7.39175 7.29102 7.875C7.29102 8.35825 7.68277 8.75 8.16602 8.75Z" fill="#3D62E6" />
</svg>