<svg width="25" height="20" viewBox="0 0 25 20" fill="none" xmlns="http://www.w3.org/2000/svg">
<path d="M24.8048 4.099C24.9618 3.97158 25.032 3.76871 24.9862 3.57443C24.9405 3.38016 24.7867 3.22758 24.5885 3.17989L23.7339 2.9686C23.5765 2.93013 23.4452 2.82473 23.376 2.68144C23.3068 2.53815 23.3072 2.37212 23.3769 2.22909L23.8529 1.28886C23.9447 1.1028 23.9171 0.881548 23.7821 0.722509C23.6472 0.563469 23.4297 0.495822 23.2255 0.54935L21.0619 1.14096C20.8985 1.18751 20.7222 1.1562 20.586 1.05644C19.6497 0.370694 18.511 0 17.3407 0C14.3535 0 11.9319 2.36493 11.9319 5.28221V5.66253C11.9328 5.79686 11.8304 5.91052 11.6939 5.92664C8.65411 6.27527 5.74416 4.76455 2.60705 1.23604C2.46811 1.08639 2.25513 1.02521 2.05535 1.07757C1.87554 1.15829 1.75522 1.32846 1.74164 1.52128C1.30835 3.25949 1.48353 5.08933 2.23925 6.71897C2.28483 6.80709 2.27629 6.91267 2.21711 6.9927C2.15792 7.07273 2.05797 7.11385 1.95799 7.09929L0.746417 6.86688C0.571784 6.83946 0.394456 6.89715 0.271561 7.02138C0.148666 7.14561 0.0957316 7.32068 0.129812 7.49018C0.319002 9.13248 1.26231 10.6018 2.69359 11.4835C2.78689 11.5277 2.84615 11.62 2.84615 11.7212C2.84615 11.8225 2.78689 11.9148 2.69359 11.9589L2.12026 12.1808C1.97948 12.2359 1.86886 12.3462 1.81538 12.4848C1.7619 12.6234 1.77047 12.7776 1.839 12.9097C2.48258 14.285 3.77636 15.2642 5.30064 15.5297C5.4076 15.5676 5.47882 15.6668 5.47882 15.778C5.47882 15.8891 5.4076 15.9883 5.30064 16.0262C3.82984 16.6203 2.25144 16.9185 0.659876 16.9031C0.361155 16.8447 0.0705621 17.0339 0.0108179 17.3257C-0.0489262 17.6174 0.144803 17.9012 0.443523 17.9595C3.19936 19.236 6.19979 19.9307 9.24908 19.9985C11.9313 20.0384 14.5657 19.3033 16.8214 17.8856C20.59 15.4288 22.8482 11.2919 22.836 6.86688V5.94777C22.8374 5.79251 22.9086 5.64569 23.0307 5.54632L24.8048 4.099Z" fill="white"/>
</svg>
