<svg class="tf-status-img" width="11" height="14" viewBox="0 0 11 14" fill="none" xmlns="http://www.w3.org/2000/svg">
  <path fill-rule="evenodd" clip-rule="evenodd" d="M9.6393 4.68104C9.59027 4.73088 9.58532 4.81007 9.62775 4.86584C11.081 6.77507 11.0907 9.44091 9.65149 11.3611C8.21226 13.2813 5.68427 13.9752 3.4921 13.0519C1.29993 12.1285 -0.00774145 9.81896 0.305983 7.42469C0.619707 5.03043 2.47631 3.15071 4.82955 2.8448C4.89825 2.83602 4.94971 2.77642 4.94945 2.70592V1.26C4.94945 1.18268 4.88789 1.12 4.81195 1.12H3.84945C3.54569 1.12 3.29945 0.86928 3.29945 0.56C3.29945 0.250721 3.54569 0 3.84945 0H7.14945C7.45321 0 7.69945 0.250721 7.69945 0.56C7.69945 0.86928 7.45321 1.12 7.14945 1.12H6.18695C6.15039 1.12 6.11533 1.13483 6.08953 1.1612C6.06372 1.18758 6.0493 1.22333 6.04945 1.26056V2.70592C6.04943 2.77632 6.10077 2.83579 6.16935 2.8448C7.08295 2.96512 7.9487 3.33059 8.6779 3.90376C8.73257 3.94662 8.80997 3.94159 8.85885 3.892L9.76965 2.96464C9.90774 2.81906 10.1122 2.76068 10.3045 2.81193C10.4968 2.86318 10.647 3.01608 10.6973 3.21188C10.7477 3.40767 10.6903 3.61588 10.5473 3.75648L9.6393 4.68104ZM1.37445 8.12C1.37445 10.4396 3.22127 12.32 5.49945 12.32C7.77662 12.3175 9.62202 10.4386 9.62445 8.12C9.62445 5.8004 7.77762 3.92 5.49945 3.92C3.22127 3.92 1.37445 5.8004 1.37445 8.12Z" fill="#111111" />
  <path d="M5.49961 4.75999C5.34773 4.75999 5.22461 4.88535 5.22461 5.03999V11.2C5.22461 11.3546 5.34773 11.48 5.49961 11.48C7.32215 11.48 8.79961 9.97567 8.79961 8.11999C8.79961 6.26432 7.32215 4.75999 5.49961 4.75999Z" fill="#111111" />
</svg>