<svg width="17px" height="17px" viewBox="0 0 17 17" version="1.1" xmlns="http://www.w3.org/2000/svg" xmlns:xlink="http://www.w3.org/1999/xlink">
    <g id="Manage-Project" stroke="none" stroke-width="1" fill="none" fill-rule="evenodd">
        <g id="Dashboard---Timeline---Edit" transform="translate(-662.000000, -266.000000)" fill="#111111" fill-rule="nonzero">
            <g id="Group-4" transform="translate(397.000000, 250.000000)">
                <g id="calendar-3" transform="translate(265.000000, 16.000000)">
                    <path d="M5.3125,7.4375 L4.60416667,7.4375 C4.21296497,7.4375 3.89583333,7.75463164 3.89583333,8.14583333 C3.89583333,8.53703503 4.21296497,8.85416667 4.60416667,8.85416667 L5.3125,8.85416667 C5.7037017,8.85416667 6.02083333,8.53703503 6.02083333,8.14583333 C6.02083333,7.75463164 5.7037017,7.4375 5.3125,7.4375 Z" id="Path"></path>
                    <path d="M8.85416667,7.4375 L8.14583333,7.4375 C7.75463164,7.4375 7.4375,7.75463164 7.4375,8.14583333 C7.4375,8.53703503 7.75463164,8.85416667 8.14583333,8.85416667 L8.85416667,8.85416667 C9.24536836,8.85416667 9.5625,8.53703503 9.5625,8.14583333 C9.5625,7.75463164 9.24536836,7.4375 8.85416667,7.4375 Z" id="Path"></path>
                    <path d="M12.3958333,7.4375 L11.6875,7.4375 C11.2962983,7.4375 10.9791667,7.75463164 10.9791667,8.14583333 C10.9791667,8.53703503 11.2962983,8.85416667 11.6875,8.85416667 L12.3958333,8.85416667 C12.787035,8.85416667 13.1041667,8.53703503 13.1041667,8.14583333 C13.1041667,7.75463164 12.787035,7.4375 12.3958333,7.4375 Z" id="Path"></path>
                    <path d="M5.3125,10.2708333 L4.60416667,10.2708333 C4.21296497,10.2708333 3.89583333,10.587965 3.89583333,10.9791667 C3.89583333,11.3703684 4.21296497,11.6875 4.60416667,11.6875 L5.3125,11.6875 C5.7037017,11.6875 6.02083333,11.3703684 6.02083333,10.9791667 C6.02083333,10.587965 5.7037017,10.2708333 5.3125,10.2708333 Z" id="Path"></path>
                    <path d="M8.85416667,10.2708333 L8.14583333,10.2708333 C7.75463164,10.2708333 7.4375,10.587965 7.4375,10.9791667 C7.4375,11.3703684 7.75463164,11.6875 8.14583333,11.6875 L8.85416667,11.6875 C9.24536836,11.6875 9.5625,11.3703684 9.5625,10.9791667 C9.5625,10.587965 9.24536836,10.2708333 8.85416667,10.2708333 Z" id="Path"></path>
                    <path d="M12.3958333,10.2708333 L11.6875,10.2708333 C11.2962983,10.2708333 10.9791667,10.587965 10.9791667,10.9791667 C10.9791667,11.3703684 11.2962983,11.6875 11.6875,11.6875 L12.3958333,11.6875 C12.787035,11.6875 13.1041667,11.3703684 13.1041667,10.9791667 C13.1041667,10.587965 12.787035,10.2708333 12.3958333,10.2708333 Z" id="Path"></path>
                    <path d="M5.3125,13.1041667 L4.60416667,13.1041667 C4.21296497,13.1041667 3.89583333,13.4212983 3.89583333,13.8125 C3.89583333,14.2037017 4.21296497,14.5208333 4.60416667,14.5208333 L5.3125,14.5208333 C5.7037017,14.5208333 6.02083333,14.2037017 6.02083333,13.8125 C6.02083333,13.4212983 5.7037017,13.1041667 5.3125,13.1041667 Z" id="Path"></path>
                    <path d="M8.85416667,13.1041667 L8.14583333,13.1041667 C7.75463164,13.1041667 7.4375,13.4212983 7.4375,13.8125 C7.4375,14.2037017 7.75463164,14.5208333 8.14583333,14.5208333 L8.85416667,14.5208333 C9.24536836,14.5208333 9.5625,14.2037017 9.5625,13.8125 C9.5625,13.4212983 9.24536836,13.1041667 8.85416667,13.1041667 Z" id="Path"></path>
                    <path d="M12.3958333,13.1041667 L11.6875,13.1041667 C11.2962983,13.1041667 10.9791667,13.4212983 10.9791667,13.8125 C10.9791667,14.2037017 11.2962983,14.5208333 11.6875,14.5208333 L12.3958333,14.5208333 C12.787035,14.5208333 13.1041667,14.2037017 13.1041667,13.8125 C13.1041667,13.4212983 12.787035,13.1041667 12.3958333,13.1041667 Z" id="Path"></path>
                    <path d="M15.2291667,2.125 L13.28125,2.125 C13.1834496,2.125 13.1041667,2.04571709 13.1041667,1.94791667 L13.1041667,0.708333333 C13.1041667,0.317131636 12.787035,0 12.3958333,0 C12.0046316,0 11.6875,0.317131636 11.6875,0.708333333 L11.6875,4.07291667 C11.6875,4.36631794 11.4496513,4.60416667 11.15625,4.60416667 C10.8628487,4.60416667 10.625,4.36631794 10.625,4.07291667 L10.625,2.47916667 C10.625,2.28356582 10.4664342,2.125 10.2708333,2.125 L5.84375,2.125 C5.74622553,2.12500078 5.66705676,2.04614869 5.66666667,1.948625 L5.66666667,0.708333333 C5.66666667,0.317131636 5.34953503,0 4.95833333,0 C4.56713164,0 4.25,0.317131636 4.25,0.708333333 L4.25,4.07291667 C4.25,4.36631794 4.01215127,4.60416667 3.71875,4.60416667 C3.42534873,4.60416667 3.1875,4.36631794 3.1875,4.07291667 L3.1875,2.47916667 C3.1875,2.28356582 3.02893418,2.125 2.83333333,2.125 L1.77083333,2.125 C0.988429938,2.125 0.354166667,2.75926327 0.354166667,3.54166667 L0.354166667,15.5833333 C0.354166667,16.3657367 0.988429938,17 1.77083333,17 L15.2291667,17 C16.0115701,17 16.6458333,16.3657367 16.6458333,15.5833333 L16.6458333,3.54166667 C16.6458333,2.75926327 16.0115701,2.125 15.2291667,2.125 Z M15.2291667,15.2291667 C15.2291667,15.4247675 15.0706008,15.5833333 14.875,15.5833333 L2.125,15.5833333 C1.92939915,15.5833333 1.77083333,15.4247675 1.77083333,15.2291667 L1.77083333,6.72916667 C1.77083333,6.53356582 1.92939915,6.375 2.125,6.375 L14.875,6.375 C15.0706008,6.375 15.2291667,6.53356582 15.2291667,6.72916667 L15.2291667,15.2291667 Z" id="Shape"></path>
                </g>
            </g>
        </g>
    </g>
</svg>
