<svg width="37" height="35" viewBox="0 0 37 35" fill="none" xmlns="http://www.w3.org/2000/svg">
<path d="M22.3043 7.80951H36V34H1V7.80951H14.6957" stroke="white" stroke-width="2" stroke-linejoin="round" />
<path fill-rule="evenodd" clip-rule="evenodd" d="M10.9254 24.5714C12.6564 24.5714 14.0597 23.1643 14.0597 21.4286C14.0597 19.6928 12.6564 18.2857 10.9254 18.2857C9.19433 18.2857 7.79105 19.6928 7.79105 21.4286C7.79105 23.1643 9.19433 24.5714 10.9254 24.5714Z" stroke="white" stroke-width="2" stroke-linejoin="round" />
<path fill-rule="evenodd" clip-rule="evenodd" d="M10.9254 24.5714C7.19403 24.5714 5.70149 26.9286 5.70149 29.2857H16.1493C16.1493 26.9286 14.6567 24.5714 10.9254 24.5714Z" stroke="white" stroke-width="2" stroke-linejoin="round" />
<path fill-rule="evenodd" clip-rule="evenodd" d="M22.4179 10.9524H14.5821V4.82784C14.5821 2.72253 16.3452 1 18.5 1C20.6549 1 22.4179 2.72253 22.4179 4.82784V10.9524Z" stroke="white" stroke-width="2" stroke-linejoin="round" />
<path d="M1 14.0952H36" stroke="white" stroke-width="2" stroke-linejoin="round" />
<path d="M19.806 27.7143H31.8209" stroke="white" stroke-width="2" stroke-linejoin="round" />
<path d="M19.806 24.5714H31.8209" stroke="white" stroke-width="2" stroke-linejoin="round" />
<path d="M19.806 21.9524H31.8209" stroke="white" stroke-width="2" stroke-linejoin="round" />
<path d="M19.806 18.8095H26.0746" stroke="white" stroke-width="2" stroke-linejoin="round" />
<path fill-rule="evenodd" clip-rule="evenodd" d="M19.2609 4.79154C19.2609 5.21572 18.92 5.55998 18.5 5.55998V5.55998C18.08 5.55998 17.7391 5.21572 17.7391 4.79154V4.79154C17.7391 4.36736 18.08 4.0231 18.5 4.0231V4.0231C18.92 4.0231 19.2609 4.36736 19.2609 4.79154V4.79154Z" stroke="white" stroke-width="2" stroke-linejoin="round" />
</svg>
