<?xml version="1.0" encoding="UTF-8"?>
<svg width="52px" height="61px" viewBox="0 0 52 61" version="1.1" xmlns="http://www.w3.org/2000/svg" xmlns:xlink="http://www.w3.org/1999/xlink">
    <!-- Generator: Sketch 56.2 (81672) - https://sketch.com -->
    <title>Group 3</title>
    <desc>Created with Sketch.</desc>
    <defs>
        <polygon id="path-1" points="0 0 52 0 52 61 0 61"></polygon>
    </defs>
    <g id="Token-Wallet" stroke="none" stroke-width="1" fill="none" fill-rule="evenodd">
        <g id="5-Wallet---CS" transform="translate(-1143.000000, -264.000000)">
            <g id="Group-3" transform="translate(1143.000000, 264.000000)">
                <mask id="mask-2" fill="white">
                    <use xlink:href="#path-1"></use>
                </mask>
                <g id="Clip-2"></g>
                <path d="M49.8312606,10.4731405 C48.7068903,10.3554809 46.9973393,10.1444215 44.9773458,9.71138576 C42.9567472,9.28562794 40.6202599,8.665186 38.2311245,7.83853657 C35.8431993,7.01249363 33.394154,5.99843798 31.1817226,4.77453589 C30.0779275,4.16076536 29.0285959,3.50211438 28.1063461,2.76037392 C27.1907529,2.01984644 26.3744044,1.19683596 25.9029919,0.225234798 L25.8902838,0.199155615 L25.8902838,0.198549123 C25.8757602,0.145177773 25.7819618,0.143358295 25.7638073,0.19551666 L25.7638073,0.19551666 L25.7492836,0.222202335 C25.4116095,0.879033834 24.9746906,1.37696427 24.5559262,1.78392081 C23.5217235,2.7864531 22.4602889,3.46208587 21.5186742,4.01945258 C20.5728235,4.57257385 19.7268227,4.98802129 18.9964056,5.32705066 C18.3749157,5.59997233 18.7876286,5.42954791 19.8769001,4.88916299 C20.9443861,4.31966643 22.7634695,3.45480796 24.5559262,1.78392081 C24.9365661,1.39819151 25.3395965,0.97546616 25.7383909,0.217350394 C25.742627,0.210072482 25.7462579,0.202794571 25.7529145,0.189451733 C25.7656227,0.142751802 25.863052,0.114853142 25.9029919,0.191877704 C25.9066228,0.199155615 25.9102538,0.205827034 25.9163053,0.218563379 C26.5087479,1.47400309 27.8909124,2.68759481 29.5205836,3.75198934 C27.9605047,2.68880779 26.5420312,1.37211233 26.0385457,0.159127103 C26.0312839,0.143964787 26.027653,0.136080383 26.0240221,0.127589487 L26.023417,0.127589487 C25.9743997,0.0184208166 25.8654726,-0.00826485837 25.7880133,0.00204551605 C25.7069231,0.0141753683 25.6506441,0.0548103734 25.6167556,0.117279112 C25.6082835,0.132441428 25.6034423,0.140932324 25.5992062,0.148816728 C25.1647079,0.9475675 24.6103898,1.48188749 24.1159816,1.91795568 C23.616127,2.35281088 23.1489506,2.68213637 22.7077956,2.96961387 C21.1785795,4.03764736 19.4944447,4.90614478 17.7395074,5.67457092 C13.8713833,7.351523 9.86286428,8.53782255 5.79261985,9.23832152 C4.77415102,9.40753296 3.75084098,9.54641976 2.72329489,9.62344433 L1.95233274,9.67196374 C1.7054312,9.67378321 1.37138795,9.7241221 1.13719458,9.896366 C0.8921085,10.0595125 0.704511746,10.307568 0.616764877,10.5901936 C0.572588867,10.7290804 0.556854945,10.8861619 0.556854945,11.0214098 L0.554434342,11.4107781 C0.556854945,13.4904412 0.490893506,15.5670719 0.570773414,17.6716013 C0.579850677,18.0530852 0.59013824,18.4903663 0.601636106,18.970102 C0.616764877,19.4492311 0.683936618,19.9671758 0.726902326,20.5154452 C0.776524693,21.0625015 0.828567664,21.6374565 0.882426087,22.2257543 C0.932653605,22.8152651 1.05428892,23.4090214 1.13719458,24.0064166 C1.22978266,24.6038119 1.32116043,25.1999941 1.41072275,25.781014 C1.53417352,26.355969 1.65459854,26.9163682 1.76897204,27.4482622 C1.88274039,27.9807627 1.99106239,28.4841516 2.08970198,28.945086 C2.19499822,29.4042009 2.32450049,29.8129769 2.41587827,30.1714141 L2.09817409,29.0560741 L1.84522104,27.9243589 C1.68304062,27.1686691 1.49604902,26.4178313 1.35383858,25.6585025 C1.12690702,24.1289281 0.82554191,22.6096642 0.725692024,21.0649275 C0.665782093,20.2946818 0.554434342,19.5274687 0.53809527,18.7547971 L0.469713227,16.4367823 C0.432799027,14.8932586 0.465477171,13.3600453 0.460635965,11.8207671 L0.461241116,11.2439926 L0.463056568,10.9510567 C0.466082322,10.8340036 0.481816243,10.7169505 0.513889237,10.6035364 C0.636129703,10.1492734 1.00224595,9.76900255 1.45550391,9.63921313 C1.56624652,9.60343007 1.68606638,9.58887425 1.79801928,9.58098984 L2.08304532,9.56340156 L2.65188709,9.52761849 C3.0307115,9.49001595 3.41014107,9.46575625 3.78836033,9.41541736 C5.30123738,9.23892801 6.80685263,8.97389074 8.29552365,8.63304189 C11.2728657,7.9507377 14.2017957,7.03068841 17.0181676,5.84499535 C16.7113561,5.9717523 16.4027292,6.08941187 16.097128,6.201613 C13.1064727,7.37153725 10.0056799,8.26853983 6.85829045,8.87624543 C5.28368801,9.1740333 3.69456195,9.39964855 2.10241014,9.48395103 L1.80407079,9.50093282 C1.68667153,9.50821073 1.54809199,9.52397954 1.42645668,9.56340156 C1.17531908,9.63678716 0.947177225,9.78295188 0.769868034,9.97399706 C0.591953693,10.1656487 0.467292624,10.4052133 0.411013597,10.6623662 C0.38317666,10.7824517 0.373494246,10.9383203 0.375309699,11.0347526 L0.372889096,11.3379989 L0.357760325,13.7627564 C0.354734571,14.8611145 0.340816102,15.9691765 0.377730302,17.122119 C0.334764594,15.9946492 0.348683063,14.8799158 0.357760325,13.7627564 C0.357155174,13.0446692 0.355944873,12.3314338 0.355339722,11.6163791 L0.353524269,11.0796331 C0.34626246,10.9104217 0.369258191,10.6247636 0.457610211,10.4173432 C0.628867893,9.97399706 1.02040047,9.62283783 1.48878721,9.50457177 C1.59831951,9.47667311 1.73931965,9.46211729 1.82827682,9.45726535 L2.09635863,9.43846408 L2.63494287,9.40086154 C2.99440245,9.36204601 3.3580981,9.33596683 3.72300404,9.28623443 C4.45523654,9.19950599 5.1989669,9.08487889 5.96024663,8.94963103 C7.84408114,8.63000943 9.98268414,8.14724131 11.8217375,7.59533303 C13.3225115,7.15016745 14.6998348,6.72016419 16.097128,6.201613 C16.9909358,5.85348624 17.8738508,5.47746082 18.7404268,5.06686533 C18.9903541,4.93950188 19.2572256,4.80364753 19.5301486,4.66476072 C19.5204662,4.66839968 19.5029169,4.67567759 19.4950499,4.67871005 C18.9413369,4.89826038 17.1591677,5.71399294 14.6375043,6.56793454 C12.1194717,7.4170242 8.86133967,8.32191118 5.49972685,8.82287408 C4.66038266,8.94720506 3.81559212,9.05212829 2.97866853,9.11338404 C2.55022175,9.15401904 2.16776643,9.16129696 1.70785181,9.18980211 C1.04037045,9.23104361 0.425537217,9.68651956 0.182871738,10.3021096 C0.121751505,10.4555522 0.0799960981,10.6156662 0.0606312719,10.7782063 C0.0527643112,10.8521984 0.0479231046,10.9577281 0.0473179538,11.005641 L0.0455025013,11.1609031 C0.043081898,11.3671106 0.0406612948,11.5721051 0.0382406915,11.7752801 C0.0333994849,12.1828432 0.0285582783,12.5843413 0.0243222226,12.9785615 C0.0158501111,13.7682148 0.00737799959,14.5293631 0,15.2523023 C-0.00290956437,16.7030326 0.0539746128,18.0251865 0.0757600424,19.095646 C0.156245102,20.1654989 0.247017725,20.9970003 0.297850394,21.5064541 C0.343841856,21.9128041 0.378940604,22.3155152 0.438245384,22.7127679 C0.511468634,23.1075946 0.584086732,23.5 0.65609968,23.8917895 C0.812228592,24.6723455 0.936889661,25.4553275 1.12872247,26.2346705 C1.32963254,27.013407 1.53235807,27.8024539 1.74174025,28.6145475 C1.9269164,29.432706 2.23614847,30.2454061 2.4794191,31.1175425 C2.80014904,32.2844343 3.11845837,33.256642 3.47549736,34.114829 C3.53419699,34.1912471 3.71271648,34.6194309 3.89123597,35.0494341 C4.32331366,36.1726585 4.81953733,37.2716231 5.24677381,38.3251007 C5.72302751,39.3567447 6.22227693,40.3022667 6.6755349,41.1095083 C6.97629486,41.6844633 7.53787482,42.778576 8.00263065,43.7914187 C8.12245051,44.0431131 8.23924462,44.2875296 8.34635632,44.5137514 C8.46920193,44.7345147 8.58175999,44.9364767 8.67858412,45.1099336 C8.87707359,45.4598798 9.02352009,45.6994444 9.08100941,45.7449314 C9.50098408,46.0778958 9.55726311,46.1215633 9.72246928,46.4041888 C9.88646516,46.6868144 10.142444,47.2205279 11.0876895,48.4359391 C11.3206726,48.727662 12.1297593,49.630123 12.6199314,50.1893092 C13.4187305,51.1584844 13.9573147,51.7704355 14.5473368,52.3957294 C15.170037,52.9906986 15.8350977,53.6075016 16.863249,54.6136728 C18.4971562,55.9904111 19.4266679,56.902576 20.4227461,57.6491684 C20.9092874,58.0348977 21.3861462,58.4109231 21.9368335,58.8245511 C22.496598,59.2260492 23.1604484,59.6239083 23.9701402,60.1200193 C24.0681747,60.182488 24.4524454,60.428724 24.9740854,60.762295 C25.3172059,60.9830583 25.8291635,61.0819166 26.29634,60.9193765 C26.4131341,60.880561 26.5269024,60.8277962 26.6328038,60.759869 L26.8712333,60.591264 L27.3402251,60.2558736 C27.9659511,59.8082821 28.579574,59.3697879 29.0364629,59.0428884 C29.5006136,58.7256928 29.7765624,58.4782438 29.7765624,58.4782438 C33.5000554,55.7235543 35.4129371,53.5632276 37.9914848,51.0402184 C38.3164507,50.6326553 38.6607816,50.2135689 39.0190308,49.7853852 C39.3694132,49.3499235 39.7028513,48.8792852 40.0635212,48.4153183 C40.4223756,47.9501385 40.789097,47.4764678 41.1594493,46.9961256 C41.5043853,46.4975887 41.8529521,45.9929868 42.2039396,45.485959 C42.5458498,44.9740793 42.9295155,44.4858527 43.240563,43.9545652 C43.5606878,43.4281296 43.8796022,42.90412 44.1942807,42.3873883 C44.8514745,41.3672677 45.3446724,40.2901368 45.8542094,39.3027668 C46.3770597,38.3208553 46.703236,37.4244592 47.072378,36.6469357 C47.2508975,36.2557479 47.4209448,35.885181 47.5855459,35.5249243 C47.7313872,35.1598158 47.8729925,34.8056241 48.0133875,34.4544649 C48.2959929,33.7563919 48.5743623,33.0704487 48.8733068,32.3341667 C49.126865,31.5796899 49.3979726,30.7724482 49.708415,29.84876 C49.8875396,29.3180789 49.9940461,28.8407693 50.0908703,28.4204699 C50.1895099,28.0013835 50.2790722,27.6399139 50.3716603,27.3263572 C50.4624329,27.0115875 50.5737806,26.4627117 50.6760511,25.8543996 C50.751695,25.2406291 50.8327852,24.5704548 50.9314248,24.020366 L50.9743905,24.30845 C51.0409571,23.939096 51.1728799,23.2058464 51.2388414,22.8377054 C51.3060131,22.4689579 51.3144852,22.5647837 51.3338501,22.661216 C51.3556355,22.8528677 51.405863,23.0475518 51.5226571,22.4004242 C51.710859,20.8459836 51.9577606,19.2539405 51.9928593,17.6085261 C52.0219065,15.969783 51.9565503,14.411097 51.9008764,12.8621149 C51.8609364,12.7729605 51.8209965,12.6680372 51.7883183,12.4503064 C51.7665329,11.989372 51.7441423,11.5296506 51.7223569,11.0705357 C51.7011766,11.0092799 51.6781809,10.9522696 51.6527645,10.8904074 C51.6273482,10.838249 51.6049576,10.8091374 51.5801464,10.7842712 C51.5293138,10.7363583 51.4936099,10.7048207 51.4324896,10.5792767 C51.3707643,10.5950455 51.2805968,10.4355379 51.1178112,10.2651135 C50.9592617,10.0916566 50.7214374,9.91941272 50.4799822,9.84663361 C49.9807328,9.70471434 49.6315608,9.91395429 49.853046,10.0115996 C49.8887499,10.0352528 50.0642436,10.0449567 50.2645486,10.1765656 C50.463038,10.3008966 50.6687893,10.5732118 50.6784717,10.9031437 C50.6578966,11.700075 50.6179566,12.6971489 50.5610725,13.2866597 C50.5247634,13.5638268 50.4442784,12.9185187 50.3565315,12.6449905 C50.3565315,14.209135 50.2615228,14.3007154 50.1816429,13.6572267 C50.1737759,14.0253677 50.1671193,14.3929022 50.1671193,14.3929022 C50.1374669,14.3013218 50.04972,14.0253677 50.04972,14.0253677 C50.025514,15.0169831 49.9940461,16.0371037 49.9153765,17.040849 C49.8397327,18.0506592 49.8161318,19.0750252 49.6624235,20.0860484 C49.4578825,22.1171922 49.1123414,24.1113399 48.8188432,25.9799436 C48.6481907,26.772023 48.4339673,28.1099457 48.2542375,28.9954249 C48.1483361,29.432706 47.8203444,30.3727696 47.7120224,30.7172574 C47.6115674,31.3480097 47.7271512,31.2897864 47.7356233,31.5754444 C47.5268462,32.2468318 47.1564939,33.0789396 46.8212404,33.9789747 C46.498695,34.8844681 46.0629864,35.8033045 45.6908186,36.6475422 C45.5086683,37.070874 45.3362003,37.4717656 45.1794662,37.8362677 C45.0130497,38.1934918 44.8647878,38.5119005 44.7395216,38.7811832 C44.4980664,39.3167162 44.3855083,39.6466481 44.476281,39.6417962 C44.2154609,40.1457916 44.015156,40.5527481 43.8445035,40.9142177 C43.6593273,41.2635574 43.4983572,41.5680167 43.3349665,41.876115 C43.0051593,42.4850336 42.7098457,43.1315547 42.0744373,44.1298415 C40.4139035,46.7887052 37.9666736,49.9515641 35.2035549,52.7377912 C34.8277563,53.1210945 34.4555885,53.5001524 34.0858413,53.8767843 C33.6924933,54.22855 33.302171,54.5778898 32.9124539,54.9260165 C32.5215265,55.2723238 32.1324145,55.6174181 31.7433025,55.9619059 C31.3505596,56.3027548 30.9275592,56.6060011 30.5202927,56.9304746 C29.903644,57.4023259 29.3239095,57.88752 28.7363081,58.3017544 C27.9320626,58.8500237 27.1411305,59.3898022 26.3616963,59.9216962 L26.2158549,60.021161 C26.175915,60.0472402 26.1517089,60.0587635 26.1172153,60.0757453 C26.0530693,60.1042505 25.9828719,60.1236582 25.9120692,60.1309361 C25.7698588,60.1479179 25.6234123,60.1200193 25.5005666,60.0539116 C25.124768,59.7985782 24.7519951,59.5450643 24.3810376,59.2927633 C24.0028184,59.033791 23.6264146,58.7766381 23.2530365,58.5206983 L22.6944823,58.1380014 L22.1649753,57.7231605 C21.4611849,57.1706457 20.7652615,56.6241959 20.0759947,56.0832044 C17.4078847,53.8082507 15.0623201,51.3725763 12.9394511,48.773149 C10.8262644,46.1603788 9.01020677,43.3359427 7.36056563,40.3028731 C5.70184723,37.2691971 4.34449394,33.9492565 3.22678037,30.3145463 C2.02979204,26.3935716 1.30542651,22.2627504 1.09543918,18.1167669 C0.988932632,16.0474141 1.0004305,13.9586535 0.99498414,11.8868748 L0.993168687,11.1105642 C0.985301727,10.8503789 1.01555927,10.6945103 1.12448642,10.514382 C1.22796721,10.348203 1.38833217,10.2190201 1.57169287,10.1541254 C1.66972731,10.1195553 1.74718661,10.1110644 1.87366313,10.10318 L2.26216996,10.0777073 C3.29637271,10.0097801 4.31968275,9.88787511 5.33088977,9.73079352 C9.37329726,9.07760097 13.2317389,7.94770524 16.8039442,6.51638267 C18.5849031,5.78616556 20.2992953,4.98316935 21.8841853,4.02066557 C22.6751175,3.53789745 23.4339766,3.01692029 24.1323206,2.42195104 C24.8258235,1.82758828 25.469704,1.14407111 25.9066228,0.299833389 L25.9187259,0.277999655 L25.9211465,0.273754207 L25.9223568,0.271328236 L25.9229619,0.270115251 L25.9229619,0.269508758 L25.9235671,0.269508758 L25.8037472,0.200975093 L25.8061678,0.202794571 L25.8128245,0.208253004 C25.8176657,0.212498453 25.8219017,0.217956886 25.8243223,0.222808827 C25.8297687,0.232512709 25.8303738,0.237971142 25.8303738,0.243429576 C25.830979,0.236151665 25.8315841,0.231906216 25.8376357,0.221595842 C25.8400563,0.216743901 25.8442923,0.21189196 25.8491335,0.207646512 L25.855185,0.202794571 L25.8557902,0.202188078 L25.8563953,0.201581586 L25.8570005,0.201581586 L25.8570005,0.200975093 L25.8576056,0.200975093 L25.7317343,0.273147714 L25.7359703,0.281032118 L25.7462579,0.301652867 C26.4839367,1.75480917 27.6785045,2.68334936 28.8004541,3.50999879 C29.9472149,4.32087941 31.1169714,4.98862778 32.2637322,5.5696477 C34.5602796,6.72865509 36.7521359,7.58199019 38.7303739,8.24852557 C42.6904809,9.58098984 45.804587,10.1523059 47.5583141,10.3833796 C48.312332,10.4446353 49.0724014,10.4652561 49.8312606,10.4731405" id="Fill-1" fill="#EC4A29" mask="url(#mask-2)"></path>
            </g>
        </g>
    </g>
</svg>