<svg width="35" height="34" viewBox="0 0 35 34" fill="none" xmlns="http://www.w3.org/2000/svg">
<path fill-rule="evenodd" clip-rule="evenodd" d="M32.5593 21.7261L34.0166 10.5173L23.5509 6.64768L20.2358 8.19055C20.1338 8.68216 19.9778 9.16208 19.7754 9.625L22.2855 8.45629L21.2497 19.3223L21.3076 19.9037L13.6628 21.0267L13.0345 22.2326L21.4183 21.0017L22.3837 30.639L23.5084 30.5311L22.537 20.8375L22.6351 20.8232L31.398 21.9047L31.4193 21.7389L32.7447 32.5756L23.6169 30.5226L11.7391 32.7276L11.6409 32.7085L12.7083 22.8247L12.7023 22.7641L12.6576 22.3947L11.1936 19.5795L11.4003 21.3589L11.1402 21.3982L2.67344 20.1195L2.72253 19.7145L1.42495 9.74724L7.34997 12.1846L6.85581 11.2338C6.696 11.0323 6.55091 10.8208 6.41237 10.605L0.0570068 7.98912L1.58476 19.7188L1.55476 19.951L1.53349 19.9473L1.36113 21.0352L1.42277 21.0453L0.118641 31.7248L11.7412 33.8485L23.5956 31.6477L34.057 34L32.5593 21.7261ZM22.622 19.7103L22.4262 19.7395L22.3837 19.3265L23.4724 7.90355L23.6022 7.8435L32.7829 11.238L31.5366 20.8109L22.622 19.7103ZM10.5266 32.5071L1.36495 30.8319L2.54145 21.2133L11.138 22.5132L11.528 22.4548L11.5727 22.8289L10.5266 32.5071ZM12.8043 22.6748L12.6576 22.3947L12.6467 22.2911L13.0345 22.2326L12.8043 22.6748ZM7.73341 10.2936L12.7257 19.8931L17.6641 10.3972C18.6338 9.29495 19.224 7.86635 19.224 6.30328C19.224 2.82797 16.3218 0 12.7552 0C9.18862 0 6.28692 2.82797 6.28692 6.30328C6.28692 7.81639 6.8389 9.20566 7.7525 10.2936H7.73341ZM12.7552 2.42937C14.9478 2.42937 16.7308 4.16676 16.7308 6.30328C16.7308 8.43928 14.9478 10.1772 12.7552 10.1772C10.5631 10.1772 8.77954 8.43928 8.77954 6.30328C8.77954 4.16676 10.5631 2.42937 12.7552 2.42937Z" fill="white" />
</svg>
