<svg width="30" height="30" viewBox="0 0 30 30" fill="none" xmlns="http://www.w3.org/2000/svg">
  <path fill-rule="evenodd" clip-rule="evenodd" d="M15 27.6762C8.01123 27.6762 2.32377 21.9899 2.32377 15C2.32377 8.01006 8.01123 2.32377 15 2.32377C21.9888 2.32377 27.6762 8.01006 27.6762 15C27.6762 21.9899 21.9899 27.6762 15 27.6762ZM15 0C6.7285 0 0 6.7285 0 15C0 23.2715 6.7285 30 15 30C23.2715 30 30 23.2703 30 15C30 6.72967 23.2715 0 15 0Z" fill="#ff5728" />
  <path fill-rule="evenodd" clip-rule="evenodd" d="M20.8091 13.7336H16.1616V9.08596C16.1616 8.44459 15.6422 7.9241 14.9997 7.9241C14.3571 7.9241 13.8378 8.44459 13.8378 9.08596V13.7336H9.19023C8.5477 13.7336 8.02832 14.254 8.02832 14.8954C8.02832 15.5368 8.5477 16.0573 9.19023 16.0573H13.8378V20.7049C13.8378 21.3462 14.3571 21.8668 14.9997 21.8668C15.6422 21.8668 16.1616 21.3462 16.1616 20.7049V16.0573H20.8091C21.4517 16.0573 21.9711 15.5368 21.9711 14.8954C21.9711 14.254 21.4517 13.7336 20.8091 13.7336Z" fill="#ff5728" />
</svg>
