<svg width="36" height="46" viewBox="0 0 36 46" fill="none" xmlns="http://www.w3.org/2000/svg">
<mask id="mask0" mask-type="alpha" maskUnits="userSpaceOnUse" x="0" y="0" width="36" height="46">
<path fill-rule="evenodd" clip-rule="evenodd" d="M0 0H36V46H0V0Z" fill="white" />
</mask>
<g mask="url(#mask0)">
<path fill-rule="evenodd" clip-rule="evenodd" d="M36 13.54V43.5C36 44.88 34.87 46 33.5 46H2.5C1.12 46 0 44.88 0 43.5V2.5C0 1.12 1.12 0 2.5 0H22.47V9.54C22.47 11.74 24.27 13.54 26.47 13.54H36Z" fill="#E94324" />
<path fill-rule="evenodd" clip-rule="evenodd" d="M36 12H26.0815C24.9367 12 24 11.0641 24 9.92028V0L36 12Z" fill="#E94324" />
<path d="M7.04297 22.5449V31H8.55469V28.2285H10.3887C12.0996 28.2285 13.2949 27.0801 13.2949 25.4043C13.2949 23.6992 12.1406 22.5449 10.4531 22.5449H7.04297ZM8.55469 23.8105H10.0547C11.1445 23.8105 11.7598 24.3672 11.7598 25.4043C11.7598 26.4121 11.127 26.9746 10.0488 26.9746H8.55469V23.8105ZM14.9648 22.5449V31H18.1348C20.666 31 22.1133 29.4473 22.1133 26.7344C22.1133 24.0801 20.6484 22.5449 18.1348 22.5449H14.9648ZM16.4766 23.8516H17.9355C19.5938 23.8516 20.5723 24.9121 20.5723 26.7578C20.5723 28.6445 19.6172 29.6934 17.9355 29.6934H16.4766V23.8516ZM25.3477 31V27.5723H28.8926V26.3125H25.3477V23.8516H29.2266V22.5449H23.8359V31H25.3477Z" fill="white" />
</g>
</svg>
