<svg width="24" height="24" viewBox="0 0 24 24" xmlns="http://www.w3.org/2000/svg">
<path fill-rule="evenodd" clip-rule="evenodd" d="M7.052 0.072C8.332 0.014 8.741 0 12 0C15.259 0 15.668 0.014 16.948 0.072C18.898 0.161 20.611 0.639 21.986 2.014C23.361 3.389 23.839 5.102 23.928 7.052C23.986 8.332 24 8.741 24 12C24 15.259 23.986 15.668 23.928 16.948C23.839 18.898 23.361 20.611 21.986 21.986C20.611 23.361 18.898 23.839 16.948 23.928C15.668 23.986 15.259 24 12 24C8.741 24 8.332 23.986 7.052 23.928C5.102 23.839 3.389 23.361 2.014 21.986C0.639 20.611 0.161 18.898 0.072 16.948C0.014 15.668 0 15.259 0 12C0 8.741 0.014 8.332 0.072 7.052C0.161 5.102 0.639 3.389 2.014 2.014C3.389 0.639 5.102 0.161 7.052 0.072ZM16.849 2.232C15.584 2.174 15.204 2.162 12 2.162C8.796 2.162 8.416 2.174 7.151 2.232C5.785 2.294 4.518 2.568 3.543 3.543C2.568 4.518 2.294 5.785 2.232 7.151C2.174 8.416 2.162 8.796 2.162 12C2.162 15.204 2.174 15.584 2.232 16.849C2.294 18.215 2.568 19.482 3.543 20.457C4.518 21.432 5.785 21.706 7.151 21.768C8.416 21.826 8.796 21.838 12 21.838C15.204 21.838 15.584 21.826 16.849 21.768C18.215 21.706 19.482 21.432 20.457 20.457C21.432 19.482 21.706 18.215 21.768 16.849C21.826 15.584 21.838 15.204 21.838 12C21.838 8.796 21.826 8.416 21.768 7.151C21.706 5.785 21.432 4.518 20.457 3.543C19.482 2.568 18.215 2.294 16.849 2.232Z" fill="#9E9E9E" />
<path fill-rule="evenodd" clip-rule="evenodd" d="M5.83789 11.9999C5.83789 8.59689 8.59689 5.83789 11.9999 5.83789C15.4029 5.83789 18.1619 8.59689 18.1619 11.9999C18.1619 15.4029 15.4029 18.1619 11.9999 18.1619C8.59689 18.1619 5.83789 15.4029 5.83789 11.9999ZM7.99989 11.9999C7.99989 14.2089 9.79089 15.9999 11.9999 15.9999C14.2089 15.9999 15.9999 14.2089 15.9999 11.9999C15.9999 9.79089 14.2089 7.99989 11.9999 7.99989C9.79089 7.99989 7.99989 9.79089 7.99989 11.9999Z" fill="#9E9E9E" />
<path fill-rule="evenodd" clip-rule="evenodd" d="M18.4058 7.03405C19.2011 7.03405 19.8458 6.38934 19.8458 5.59405C19.8458 4.79876 19.2011 4.15405 18.4058 4.15405C17.6105 4.15405 16.9658 4.79876 16.9658 5.59405C16.9658 6.38934 17.6105 7.03405 18.4058 7.03405Z" fill="#9E9E9E" />
</svg>
