<svg width="24" height="18" viewBox="0 0 24 18" fill="none" xmlns="http://www.w3.org/2000/svg">
<path fill-rule="evenodd" clip-rule="evenodd" d="M22.8 1.8001C23.6 2.5001 23.8 4.2001 23.8 4.2001C23.8 4.2001 24 6.1001 24 8.0001V9.8001C24 11.8001 23.8 13.7001 23.8 13.7001C23.8 13.7001 23.5 15.4001 22.8 16.1001C22.0429 16.8572 21.215 16.9774 20.6736 17.056C20.5714 17.0709 20.4794 17.0842 20.4 17.1001C17 17.4001 12 17.4001 12 17.4001C12 17.4001 5.7 17.4001 3.8 17.2001C3.70408 17.1809 3.58241 17.1691 3.44203 17.1555C2.85065 17.098 1.92735 17.0083 1.2 16.2001C0.4 15.5001 0.2 13.8001 0.2 13.8001C0.2 13.8001 0 11.8001 0 9.9001V8.1001C0 6.1001 0.2 4.2001 0.2 4.2001C0.2 4.2001 0.5 2.5001 1.2 1.8001C1.95711 1.04299 2.78499 0.922784 3.32644 0.844167C3.42863 0.82933 3.52062 0.815974 3.6 0.800098C7 0.600098 12 0.600098 12 0.600098C12 0.600098 17 0.600098 20.4 0.800098C20.9 0.800098 21.9 0.800098 22.8 1.8001ZM9.5 5.4001V12.1001L16 8.8001L9.5 5.4001Z" fill="#9E9E9E" />
</svg>
